<?xml version="1.0" standalone="no"?>
<!DOCTYPE svg PUBLIC "-//W3C//DTD SVG 20010904//EN"
 "http://www.w3.org/TR/2001/REC-SVG-20010904/DTD/svg10.dtd">
<svg version="1.0" xmlns="http://www.w3.org/2000/svg"
 width="67.000000pt" height="114.000000pt" viewBox="0 0 67.000000 114.000000"
 preserveAspectRatio="xMidYMid meet">

<g transform="translate(0.000000,114.000000) scale(0.100000,-0.100000)"
fill="#000000" stroke="none">
<path d="M30 1087 c0 -21 7 -36 20 -45 19 -12 20 -23 20 -390 l0 -378 -25 -22
c-26 -23 -30 -38 -16 -61 7 -11 46 -13 202 -9 174 4 199 7 245 27 103 45 146
122 147 261 1 68 -4 93 -20 126 -25 48 -34 55 -103 93 l-53 29 40 20 c154 79
160 282 11 356 -51 25 -56 26 -260 26 l-208 0 0 -33z m347 -57 c16 -32 17
-213 2 -243 -16 -29 -28 -37 -61 -37 -35 0 -42 25 -34 123 3 39 6 98 6 130 l0
58 37 -3 c28 -2 41 -9 50 -28z m-13 -355 c23 -24 28 -70 24 -237 -3 -176 -9
-191 -67 -186 l-36 3 -2 195 c-3 235 -2 240 36 240 16 0 36 -7 45 -15z"/>
<path d="M10 50 l0 -40 326 0 325 0 -3 38 -3 37 -322 3 -323 2 0 -40z"/>
</g>
</svg>
