<?xml version="1.0" standalone="no"?>
<!DOCTYPE svg PUBLIC "-//W3C//DTD SVG 20010904//EN"
 "http://www.w3.org/TR/2001/REC-SVG-20010904/DTD/svg10.dtd">
<svg version="1.0" xmlns="http://www.w3.org/2000/svg"
 width="373.000000pt" height="201.000000pt" viewBox="0 0 373.000000 201.000000"
 preserveAspectRatio="xMidYMid meet">

<g transform="translate(0.000000,201.000000) scale(0.100000,-0.100000)"
fill="#000000" stroke="none">
<path d="M380 1535 c0 -24 6 -37 20 -45 19 -10 20 -21 20 -387 l0 -377 -27
-21 c-21 -17 -25 -27 -19 -48 l6 -27 168 0 c185 0 272 14 325 50 90 62 130
208 92 336 -17 57 -53 96 -120 128 l-47 23 55 31 c67 38 99 86 105 157 8 94
-46 173 -137 204 -21 7 -112 11 -237 11 l-204 0 0 -35z m334 -40 c21 -22 29
-71 25 -169 -4 -95 -22 -126 -71 -126 l-28 0 0 155 0 155 29 0 c16 0 36 -7 45
-15z m6 -380 c11 -12 15 -48 18 -155 6 -214 -6 -260 -69 -260 l-29 0 0 221 0
222 32 -7 c18 -4 39 -13 48 -21z"/>
<path d="M1040 1310 c14 -4 37 -8 51 -9 30 -1 92 -82 200 -260 l64 -104 -1
-116 c-1 -157 -4 -168 -57 -179 -33 -8 -10 -10 108 -10 122 0 141 2 104 10
-44 9 -47 12 -53 46 -3 21 -6 85 -6 143 l0 106 96 139 c138 200 155 219 206
231 36 9 20 11 -97 10 -133 0 -136 -1 -72 -10 37 -6 67 -13 67 -17 0 -10 -153
-239 -184 -275 l-26 -30 -25 30 c-31 36 -165 258 -165 272 0 6 33 15 73 20 64
9 51 10 -118 11 -109 0 -179 -3 -165 -8z m252 -190 l108 -174 0 -148 c0 -125
-2 -148 -15 -148 -13 0 -15 23 -15 143 l0 143 -106 170 c-122 194 -124 197
-99 193 11 -3 61 -72 127 -179z"/>
<path d="M2051 1033 c-142 -361 -150 -377 -193 -390 -28 -9 -16 -11 72 -11 93
0 100 1 60 10 -25 6 -47 12 -49 14 -2 2 11 46 30 99 l33 95 148 0 148 0 19
-38 c20 -39 55 -151 49 -157 -1 -2 -23 -7 -48 -13 -37 -8 -21 -10 95 -10 109
0 133 2 109 10 -28 9 -39 24 -83 117 -28 59 -93 208 -145 332 -72 170 -99 225
-113 227 -16 2 -36 -40 -132 -285z m253 -70 c69 -167 126 -306 126 -309 0 -3
-7 -4 -16 -2 -24 4 -257 565 -249 597 3 13 7 22 9 20 2 -2 60 -140 130 -306z
m-77 67 c34 -79 60 -147 57 -152 -5 -8 -264 -12 -264 -4 0 31 122 307 134 303
6 -2 39 -68 73 -147z"/>
<path d="M2605 1310 c11 -5 29 -9 40 -9 11 -1 37 -15 58 -32 l38 -31 -3 -288
c-2 -159 -6 -291 -10 -295 -3 -3 -28 -10 -55 -15 -36 -6 -15 -8 87 -8 114 0
126 2 81 9 -30 5 -57 12 -60 15 -8 8 -14 522 -6 542 5 13 8 12 27 -4 31 -29
406 -450 463 -521 l50 -62 5 336 c6 374 -1 344 80 361 37 8 19 10 -99 11 -79
0 -142 -1 -140 -4 3 -2 30 -8 60 -12 49 -8 54 -11 60 -38 10 -44 10 -455 1
-455 -16 0 -262 266 -398 430 l-66 80 -116 -1 c-75 0 -110 -4 -97 -9z m424
-301 c183 -205 261 -299 261 -315 0 -27 22 -50 -310 321 -285 318 -257 285
-233 285 14 0 103 -92 282 -291z"/>
<path d="M360 500 l0 -40 325 0 325 0 0 40 0 40 -325 0 -325 0 0 -40z"/>
</g>
</svg>
